<svg xmlns="http://www.w3.org/2000/svg" viewBox="0 0 564 240" enable-background="new 0 0 564 240"><g fill="#989898"><path d="m273.1 229.7h-1.8v-7h-2.6v-1.5h6.9v1.5h-2.6v7z"/><path d="m278.3 222.6h-1.7v-1.5h1.7v1.5m0 .8v6.3h-1.7v-6.3h1.7"/><path d="m288.9 229.7h-1.7v-3.8c0-.9-.4-1.2-.9-1.2-.8 0-1.1.5-1.1 1.3v3.8h-1.7v-3.8c0-.5 0-1.3-1-1.3-.8 0-1 .5-1 1.2v3.8h-1.7v-6.3h1.6v.9c.2-.4.7-1.1 1.8-1.1.9 0 1.3.3 1.7 1 .2-.3.7-1 1.7-1 1.2 0 2.2.7 2.2 2.1v4.4z"/><path d="m295.8 227.8c-.4 1.5-1.7 2-2.8 2-1.8 0-3.1-.9-3.1-3.4 0-.8.3-3.2 3-3.2 1.2 0 3 .6 3 3.5v.3h-4.3c0 .5.1 1.5 1.5 1.5.5 0 .9-.2 1.1-.7h1.6m-1.6-1.9c-.1-1-.7-1.3-1.3-1.3-.8 0-1.2.5-1.3 1.3h2.6"/></g><path fill="#cdcccc" d="m558 207l-3.3-3.3c-.3-.3-.7-.3-1 0-.3.3-.3.7 0 1l2.1 2.1h-549.5v1.4h549.6l-2.1 2.1c-.3.3-.3.7 0 1 .1.1.3.2.5.2.2 0 .4-.1.5-.2l3.3-3.3c.2-.3.2-.8-.1-1"/><path fill="none" stroke="#654a83" stroke-miterlimit="10" d="m101 184c0 2.3-1.9 4.2-4.2 4.2h-86.3c-2.3 0-4.2-1.9-4.2-4.2v-19.5c0-2.3 1.9-4.2 4.2-4.2h86.2c2.3 0 4.2 1.9 4.2 4.2v19.5z"/><g fill="#654a83"><path d="m22.5 170.5h3.7c2.9 0 3.4 2.4 3.4 4 0 1.8-.7 4.4-3.5 4.4h-3.7v-8.4zm1.7 7h1.7c1.4 0 1.9-1.5 1.9-2.8 0-2.5-1.2-2.7-1.9-2.7h-1.7v5.5"/><path d="m32.1 179h-1.9l3-8.5h2l3 8.5h-1.9l-.5-1.7h-3.1l-.6 1.7m1.1-3.3h2.2l-1.1-3.4-1.1 3.4"/><path d="m42.3 179h-1.8v-7h-2.5v-1.5h6.9v1.5h-2.6v7"/><path d="m46.4 179h-1.9l3-8.5h2l3 8.5h-1.9l-.5-1.7h-3.1l-.6 1.7m1.1-3.3h2.2l-1.1-3.4-1.1 3.4"/><path d="m54.1 170.5h4.1c2.1 0 2.6 1.3 2.6 2.2 0 1.2-.7 1.6-1 1.7 1 .4 1.3 1.2 1.3 2.1 0 .7-.3 1.3-.7 1.7-.5.5-.9.8-2.7.8h-3.6v-8.5m1.7 3.3h2.1c.7 0 1.3-.3 1.3-.9 0-.7-.5-.9-1.3-.9h-2v1.8zm0 3.7h2.2c.9 0 1.4-.4 1.4-1.2 0-.7-.6-1-1.3-1h-2.3v2.2"/><path d="m63.8 179h-1.8l3-8.5h2l3 8.5h-1.9l-.5-1.7h-3.1l-.7 1.7m1.1-3.3h2.1l-1.1-3.4-1 3.4"/><path d="m72.5 176.3c0 .5.2 1.4 1.8 1.4.8 0 1.8-.2 1.8-1.1 0-.7-.6-.8-1.5-1.1l-.9-.2c-1.4-.3-2.7-.6-2.7-2.5 0-.9.5-2.6 3.3-2.6 2.6 0 3.3 1.7 3.3 2.7h-1.7c0-.4-.2-1.3-1.7-1.3-.7 0-1.5.2-1.5 1 0 .7.5.8.9.9l2.1.5c1.2.3 2.2.8 2.2 2.3 0 2.6-2.6 2.8-3.3 2.8-3.1 0-3.6-1.8-3.6-2.8h1.5"/><path d="m85.7 172h-4.5v1.8h4.1v1.5h-4.1v2.2h4.7v1.5h-6.4v-8.5h6.2v1.5"/></g><path fill="none" stroke="#3773b1" stroke-miterlimit="10" d="m101 150.3c0 2.3-1.9 4.2-4.2 4.2h-86.3c-2.3 0-4.2-1.9-4.2-4.2v-19.5c0-2.3 1.9-4.2 4.2-4.2h86.2c2.3 0 4.2 1.9 4.2 4.2v19.5z"/><g fill="#3773b1"><path d="m22.9 136.8h4.1c2.1 0 2.6 1.3 2.6 2.2 0 1.2-.7 1.6-1 1.7 1 .4 1.3 1.2 1.3 2.1 0 .7-.3 1.3-.7 1.7-.5.5-.9.8-2.7.8h-3.6v-8.5m1.7 3.3h2.1c.7 0 1.3-.3 1.3-.9 0-.7-.5-.9-1.3-.9h-2v1.8zm0 3.7h2.2c.9 0 1.4-.4 1.4-1.2 0-.7-.6-1-1.3-1h-2.3v2.2"/><path d="m32.6 145.2h-1.9l3-8.5h2l3 8.5h-1.9l-.5-1.7h-3.1l-.6 1.7m1.1-3.2h2.2l-1.1-3.4-1.1 3.4"/><path d="m45.3 139.5c-.1-.5-.4-1.5-1.9-1.5-.9 0-2.1.6-2.1 3 0 1.5.6 2.9 2.1 2.9 1 0 1.7-.6 1.9-1.6h1.7c-.4 1.8-1.6 3.1-3.7 3.1-2.3 0-3.9-1.5-3.9-4.5 0-3 1.7-4.5 3.9-4.5 2.5 0 3.6 1.7 3.7 3h-1.7z"/><path d="m50.6 145.2h-1.8v-8.5h1.8v3.4l3.2-3.4h2.3l-3.5 3.5 3.7 5h-2.3l-2.6-3.7-.8.9v2.8"/><path d="M67.5,138.3H63v1.8h4.1v1.5H63v2.2h4.7v1.5h-6.4v-8.5h6.2V138.3z"/><path d="m74.6 136.8h1.7v8.5h-1.8l-3.5-6v6h-1.7v-8.5h1.9l3.4 5.9v-5.9"/><path d="m78.3 136.8h3.7c2.9 0 3.4 2.4 3.4 4 0 1.8-.7 4.4-3.5 4.4h-3.7v-8.4zm1.8 7h1.7c1.4 0 1.9-1.5 1.9-2.8 0-2.5-1.2-2.7-1.9-2.7h-1.7v5.5"/></g><path fill="none" stroke="#59aee0" stroke-miterlimit="10" d="m101 116.5c0 2.3-1.9 4.2-4.2 4.2h-86.3c-2.3 0-4.2-1.9-4.2-4.2v-19.5c0-2.3 1.9-4.2 4.2-4.2h86.2c2.3 0 4.2 1.9 4.2 4.2v19.5z"/><g fill="#59aee0"><path d="m20.9 111.5h-1.8v-8.5h6v1.5h-4.3v1.9h3.7v1.5h-3.7v3.6z"/><path d="m26.7 103h4.3c2.3 0 2.7 1.7 2.7 2.4 0 .9-.5 1.7-1.3 2 .7.3 1.1.6 1.1 2.1 0 1.2 0 1.5.4 1.7v.2h-2c-.1-.4-.2-.8-.2-1.7 0-1.2-.1-1.6-1.4-1.6h-1.8v3.3h-1.7v-8.4zm3.8 3.8c.9 0 1.4-.3 1.4-1.2 0-.4-.2-1.1-1.2-1.1h-2.2v2.3h2"/><path d="m39.1 102.8c1.1 0 4.1.5 4.1 4.5 0 4-3 4.5-4.1 4.5-1.1 0-4.1-.5-4.1-4.5 0-4 2.9-4.5 4.1-4.5m0 7.4c1 0 2.3-.6 2.3-3s-1.3-3-2.3-3c-1 0-2.3.6-2.3 3s1.3 3 2.3 3"/><path d="m50.1 103h1.7v8.5h-1.8l-3.5-6v6h-1.7v-8.5h1.9l3.4 5.9v-5.9"/><path d="m57.4 111.5h-1.8v-7h-2.6v-1.5h7v1.5h-2.6v7"/><path d="m71.2 104.5h-4.5v1.8h4.1v1.5h-4.1v2.2h4.7v1.5h-6.4v-8.5h6.2v1.5"/><path d="m78.4 103h1.6v8.5h-1.8l-3.5-6v6h-1.7v-8.5h2l3.4 5.9v-5.9"/><path d="m82.1 103h3.7c2.9 0 3.4 2.4 3.4 4 0 1.8-.7 4.4-3.5 4.4h-3.7v-8.4zm1.7 7.1h1.7c1.4 0 1.9-1.5 1.9-2.8 0-2.5-1.2-2.7-1.9-2.7h-1.7v5.5"/></g><path fill="none" stroke="#f79332" stroke-miterlimit="10" d="m101 82.8c0 2.3-1.9 4.2-4.2 4.2h-86.3c-2.3 0-4.2-1.9-4.2-4.2v-19.5c0-2.3 1.9-4.2 4.2-4.2h86.2c2.3 0 4.2 1.9 4.2 4.2v19.5z"/><g fill="#f79332"><path d="m32 77.8h-1.8v-7h-2.6v-1.5h6.9v1.5h-2.5v7"/><path d="m42.2 70.8h-4.5v1.8h4.1v1.5h-4.1v2.2h4.7v1.5h-6.4v-8.5h6.2v1.5"/><path d="m45.4 75.2c0 .5.2 1.4 1.8 1.4.8 0 1.8-.2 1.8-1.1 0-.7-.6-.8-1.5-1.1l-.9-.2c-1.4-.3-2.7-.6-2.7-2.5 0-.9.5-2.6 3.3-2.6 2.6 0 3.3 1.7 3.3 2.7h-1.7c0-.4-.2-1.3-1.7-1.3-.7 0-1.5.2-1.5 1 0 .7.5.8.9.9l2.1.5c1.2.3 2.2.8 2.2 2.3 0 2.6-2.6 2.8-3.3 2.8-3.1 0-3.6-1.8-3.6-2.8h1.5"/><path d="m55.8 77.8h-1.8v-7h-2.6v-1.5h6.9v1.5h-2.6v7z"/><path d="m61.4 77.8h-1.8v-8.5h1.8v8.5"/><path d="m68.5 69.3h1.7v8.5h-1.8l-3.5-6v6h-1.7v-8.5h1.9l3.4 5.9v-5.9"/><path d="m76.2 73.2h3.5v4.6h-1.2l-.2-1.1c-.4.5-1.1 1.3-2.6 1.3-2 0-3.9-1.5-3.9-4.4 0-2.3 1.3-4.5 4.1-4.5 2.6 0 3.6 1.7 3.7 2.9h-1.8c0-.3-.6-1.4-1.9-1.4-1.3 0-2.4.9-2.4 3 0 2.3 1.3 2.9 2.5 2.9.4 0 1.7-.2 2.1-1.9h-2v-1.4z"/></g><g fill="#68ab47"><path d="m28.4 41.5c0 .5.2 1.4 1.8 1.4.8 0 1.8-.2 1.8-1.1 0-.7-.6-.8-1.5-1.1l-.9-.2c-1.4-.3-2.7-.6-2.7-2.5 0-.9.5-2.6 3.3-2.6 2.6 0 3.3 1.7 3.3 2.7h-1.7c0-.4-.2-1.3-1.7-1.3-.7 0-1.5.2-1.5 1 0 .7.5.8.9.9l2.1.5c1.2.3 2.2.8 2.2 2.3 0 2.6-2.6 2.8-3.3 2.8-3.1 0-3.6-1.8-3.6-2.8h1.5"/><path d="m37.1 40.3v3.8h-1.8v-8.5h1.8v3.2h3.3v-3.2h1.8v8.5h-1.8v-3.8h-3.3"/><path d="m45.9 44.1h-1.8v-8.5h1.8v8.5"/><path d="m49.7 44.1h-1.8v-8.5h3.9c1.6 0 2.6 1.1 2.6 2.7 0 .8-.4 2.7-2.7 2.7h-2v3.1m1.6-4.5c1.3 0 1.3-.9 1.3-1.3 0-.8-.5-1.2-1.6-1.2h-1.4v2.5h1.7"/><path d="m63 44.1h-1.7l-2.3-6.3h1.8l1.3 4.6 1.3-4.6h1.8l-2.2 6.3"/><path d="m66.6 37.1h.2c1.6 0 2-.8 2.1-1.5h1.4v8.4h-1.7v-5.8h-2v-1.1"/><path d="m142.3 41.5c0 .5.2 1.4 1.8 1.4.8 0 1.8-.2 1.8-1.1 0-.7-.6-.8-1.5-1.1l-.9-.2c-1.4-.3-2.7-.6-2.7-2.5 0-.9.5-2.6 3.3-2.6 2.6 0 3.3 1.7 3.3 2.7h-1.7c0-.4-.2-1.3-1.7-1.3-.7 0-1.5.2-1.5 1 0 .7.5.8.9.9l2.1.5c1.2.3 2.2.8 2.2 2.3 0 2.6-2.6 2.8-3.3 2.8-3.1 0-3.6-1.8-3.6-2.8h1.5"/><path d="m151 40.3v3.8h-1.8v-8.5h1.8v3.2h3.3v-3.2h1.8v8.5h-1.8v-3.8h-3.3"/><path d="m159.8 44.1h-1.8v-8.5h1.8v8.5"/><path d="m163.6 44.1h-1.8v-8.5h3.9c1.6 0 2.6 1.1 2.6 2.7 0 .8-.4 2.7-2.7 2.7h-2v3.1m1.6-4.5c1.3 0 1.3-.9 1.3-1.3 0-.8-.5-1.2-1.6-1.2h-1.4v2.5h1.7"/><path d="m176.9 44.1h-1.7l-2.3-6.3h1.8l1.3 4.6 1.3-4.6h1.8l-2.2 6.3"/><path d="m180.1 38.7c0-2.7 2-3 2.7-3 1.6 0 2.9.9 2.9 2.6 0 1.4-.9 2.2-1.7 2.7-1.1.8-1.7 1.2-1.9 1.5h3.6v1.5h-5.7c.1-1 .1-2 1.9-3.3 1.5-1.1 2.1-1.5 2.1-2.5 0-.6-.4-1.2-1.2-1.2-1.2 0-1.2 1-1.2 1.6h-1.5z"/></g><path fill="none" stroke="#f79332" stroke-miterlimit="10" d="m213.9 82.8c0 2.3-1.9 4.2-4.2 4.2h-86.2c-2.3 0-4.2-1.9-4.2-4.2v-19.5c0-2.3 1.9-4.2 4.2-4.2h86.2c2.3 0 4.2 1.9 4.2 4.2v19.5z"/><g fill="#f79332"><path d="m144.9 77.8h-1.8v-7h-2.6v-1.5h6.9v1.5h-2.6v7z"/><path d="m155.1 70.8h-4.5v1.8h4.1v1.5h-4.1v2.2h4.7v1.5h-6.4v-8.5h6.2v1.5"/><path d="m158.3 75.2c0 .5.2 1.4 1.8 1.4.8 0 1.8-.2 1.8-1.1 0-.7-.6-.8-1.5-1.1l-.9-.2c-1.4-.3-2.7-.6-2.7-2.5 0-.9.5-2.6 3.3-2.6 2.6 0 3.3 1.7 3.3 2.7h-1.7c0-.4-.2-1.3-1.7-1.3-.7 0-1.5.2-1.5 1 0 .7.5.8.9.9l2.1.5c1.2.3 2.2.8 2.2 2.3 0 2.6-2.6 2.8-3.3 2.8-3.1 0-3.6-1.8-3.6-2.8h1.5"/><path d="m168.6 77.8h-1.8v-7h-2.6v-1.5h6.9v1.5h-2.6v7z"/><path d="m174.2 77.8h-1.8v-8.5h1.8v8.5"/><path d="m181.4 69.3h1.7v8.5h-1.8l-3.5-6v6h-1.7v-8.5h1.9l3.4 5.9v-5.9"/><path d="m189.1 73.2h3.5v4.6h-1.2l-.2-1.1c-.4.5-1.1 1.3-2.6 1.3-2 0-3.9-1.5-3.9-4.4 0-2.3 1.3-4.5 4.1-4.5 2.6 0 3.6 1.7 3.7 2.9h-1.8c0-.3-.6-1.4-1.9-1.4-1.3 0-2.4.9-2.4 3 0 2.3 1.3 2.9 2.5 2.9.4 0 1.7-.2 2.1-1.9h-2v-1.4z"/></g><path fill="none" stroke="#59aee0" stroke-miterlimit="10" d="m213.9 116.5c0 2.3-1.9 4.2-4.2 4.2h-86.2c-2.3 0-4.2-1.9-4.2-4.2v-19.5c0-2.3 1.9-4.2 4.2-4.2h86.2c2.3 0 4.2 1.9 4.2 4.2v19.5z"/><g fill="#59aee0"><path d="m133.8 111.5h-1.8v-8.5h6v1.5h-4.3v1.9h3.7v1.5h-3.7v3.6z"/><path d="m139.6 103h4.3c2.3 0 2.7 1.7 2.7 2.4 0 .9-.5 1.7-1.3 2 .7.3 1.1.6 1.1 2.1 0 1.2 0 1.5.4 1.7v.2h-2c-.1-.4-.2-.8-.2-1.7 0-1.2-.1-1.6-1.4-1.6h-1.8v3.3h-1.7v-8.4zm3.8 3.8c.9 0 1.4-.3 1.4-1.2 0-.4-.2-1.1-1.2-1.1h-2.2v2.3h2"/><path d="m152 102.8c1.1 0 4.1.5 4.1 4.5 0 4-3 4.5-4.1 4.5-1.1 0-4.1-.5-4.1-4.5 0-4 2.9-4.5 4.1-4.5m0 7.4c1 0 2.3-.6 2.3-3s-1.3-3-2.3-3c-1 0-2.3.6-2.3 3s1.3 3 2.3 3"/><path d="m163 103h1.7v8.5h-1.8l-3.5-6v6h-1.7v-8.5h1.9l3.4 5.9v-5.9"/><path d="m170.3 111.5h-1.8v-7h-2.6v-1.5h6.9v1.5h-2.6v7z"/><path d="m184.1 104.5h-4.5v1.8h4.1v1.5h-4.1v2.2h4.7v1.5h-6.4v-8.5h6.2v1.5"/><path d="m191.3 103h1.7v8.5h-1.8l-3.5-6v6h-1.7v-8.5h1.9l3.4 5.9v-5.9"/><path d="m195 103h3.7c2.9 0 3.4 2.4 3.4 4 0 1.8-.7 4.4-3.5 4.4h-3.6v-8.4m1.7 7.1h1.7c1.4 0 1.9-1.5 1.9-2.8 0-2.5-1.2-2.7-1.9-2.7h-1.7v5.5"/></g><path fill="none" stroke="#3773b1" stroke-miterlimit="10" d="m213.9 150.3c0 2.3-1.9 4.2-4.2 4.2h-86.2c-2.3 0-4.2-1.9-4.2-4.2v-19.5c0-2.3 1.9-4.2 4.2-4.2h86.2c2.3 0 4.2 1.9 4.2 4.2v19.5z"/><g fill="#3773b1"><path d="m135.8 136.8h4.1c2.1 0 2.6 1.3 2.6 2.2 0 1.2-.7 1.6-1 1.7 1 .4 1.3 1.2 1.3 2.1 0 .7-.3 1.3-.7 1.7-.5.5-.9.8-2.7.8h-3.6v-8.5m1.7 3.3h2.1c.7 0 1.3-.3 1.3-.9 0-.7-.5-.9-1.3-.9h-2v1.8zm0 3.7h2.2c.9 0 1.4-.4 1.4-1.2 0-.7-.6-1-1.3-1h-2.3v2.2"/><path d="m145.5 145.2h-1.9l3-8.5h2l3 8.5h-1.9l-.5-1.7h-3.1l-.6 1.7m1.1-3.2h2.2l-1.1-3.4-1.1 3.4"/><path d="m158.1 139.5c-.1-.5-.4-1.5-1.9-1.5-.9 0-2.1.6-2.1 3 0 1.5.6 2.9 2.1 2.9 1 0 1.7-.6 1.9-1.6h1.8c-.4 1.8-1.6 3.1-3.7 3.1-2.3 0-3.9-1.5-3.9-4.5 0-3 1.7-4.5 3.9-4.5 2.5 0 3.6 1.7 3.7 3h-1.8z"/><path d="m163.5 145.2h-1.8v-8.5h1.8v3.4l3.2-3.4h2.3l-3.5 3.5 3.7 5h-2.2l-2.6-3.7-.8.9v2.8z"/><path d="m180.4 138.3h-4.5v1.8h4.1v1.5h-4.1v2.2h4.7v1.5h-6.4v-8.5h6.2v1.5"/><path d="m187.5 136.8h1.7v8.5h-1.8l-3.5-6v6h-1.7v-8.5h1.9l3.4 5.9v-5.9"/><path d="m191.2 136.8h3.7c2.9 0 3.4 2.4 3.4 4 0 1.8-.7 4.4-3.5 4.4h-3.7v-8.4zm1.8 7h1.7c1.4 0 1.9-1.5 1.9-2.8 0-2.5-1.2-2.7-1.9-2.7h-1.7v5.5"/></g><path fill="none" stroke="#654a83" stroke-miterlimit="10" d="m213.9 184c0 2.3-1.9 4.2-4.2 4.2h-86.2c-2.3 0-4.2-1.9-4.2-4.2v-19.5c0-2.3 1.9-4.2 4.2-4.2h86.2c2.3 0 4.2 1.9 4.2 4.2v19.5z"/><g fill="#654a83"><path d="m135.4 170.5h3.7c2.9 0 3.4 2.4 3.4 4 0 1.8-.7 4.4-3.5 4.4h-3.7v-8.4zm1.7 7h1.7c1.4 0 1.9-1.5 1.9-2.8 0-2.5-1.2-2.7-1.9-2.7h-1.7v5.5"/><path d="m145 179h-1.9l3-8.5h2l3 8.5h-1.9l-.5-1.7h-3.1l-.6 1.7m1-3.3h2.2l-1.1-3.4-1.1 3.4"/><path d="m155.2 179h-1.8v-7h-2.6v-1.5h6.9v1.5h-2.6v7z"/><path d="m159.3 179h-1.9l3-8.5h2l3 8.5h-1.9l-.5-1.7h-3.1l-.6 1.7m1.1-3.3h2.2l-1.1-3.4-1.1 3.4"/><path d="m167 170.5h4.1c2.1 0 2.6 1.3 2.6 2.2 0 1.2-.7 1.6-1 1.7 1 .4 1.3 1.2 1.3 2.1 0 .7-.3 1.3-.7 1.7-.5.5-.9.8-2.7.8h-3.6v-8.5m1.7 3.3h2.1c.7 0 1.3-.3 1.3-.9 0-.7-.5-.9-1.3-.9h-2v1.8zm0 3.7h2.2c.9 0 1.4-.4 1.4-1.2 0-.7-.6-1-1.3-1h-2.3v2.2"/><path d="m176.7 179h-1.9l3-8.5h2l3 8.5h-1.8l-.5-1.7h-3.1l-.7 1.7m1.1-3.3h2.2l-1.1-3.4-1.1 3.4"/><path d="m185.3 176.3c0 .5.2 1.4 1.8 1.4.8 0 1.8-.2 1.8-1.1 0-.7-.6-.8-1.5-1.1l-.9-.2c-1.4-.3-2.7-.6-2.7-2.5 0-.9.5-2.6 3.3-2.6 2.6 0 3.3 1.7 3.3 2.7h-1.7c0-.4-.2-1.3-1.7-1.3-.7 0-1.5.2-1.5 1 0 .7.5.8.9.9l2.1.5c1.2.3 2.2.8 2.2 2.3 0 2.6-2.6 2.8-3.3 2.8-3.1 0-3.6-1.8-3.6-2.8h1.5"/><path d="M198.5,172H194v1.8h4.1v1.5H194v2.2h4.7v1.5h-6.4v-8.5h6.2V172z"/></g><g fill="#68ab47"><path d="m259.2 41.5c0 .5.2 1.4 1.8 1.4.8 0 1.8-.2 1.8-1.1 0-.7-.6-.8-1.5-1.1l-.9-.2c-1.4-.3-2.7-.6-2.7-2.5 0-.9.5-2.6 3.3-2.6 2.6 0 3.3 1.7 3.3 2.7h-1.7c0-.4-.2-1.3-1.7-1.3-.7 0-1.5.2-1.5 1 0 .7.5.8.9.9l2.1.5c1.2.3 2.2.8 2.2 2.3 0 2.6-2.6 2.8-3.3 2.8-3.1 0-3.6-1.8-3.6-2.8h1.5"/><path d="m267.9 40.3v3.8h-1.8v-8.5h1.8v3.2h3.3v-3.2h1.8v8.5h-1.8v-3.8h-3.3"/><path d="m276.7 44.1h-1.8v-8.5h1.8v8.5"/><path d="m280.5 44.1h-1.8v-8.5h3.9c1.6 0 2.6 1.1 2.6 2.7 0 .8-.4 2.7-2.7 2.7h-2v3.1m1.6-4.5c1.3 0 1.3-.9 1.3-1.3 0-.8-.5-1.2-1.6-1.2h-1.4v2.5h1.7"/><path d="m293.8 44.1h-1.7l-2.3-6.3h1.8l1.3 4.6 1.3-4.6h1.8l-2.2 6.3"/><path d="m299.1 39.2h.3c.5 0 1.4 0 1.4-1.1 0-.3-.1-1.1-1.1-1.1-1.1 0-1.1 1.1-1.1 1.4h-1.6c0-1.6.9-2.7 2.8-2.7 1.1 0 2.6.6 2.6 2.3 0 .9-.5 1.4-1 1.6.3.1 1.3.5 1.3 1.9 0 1.6-1.2 2.7-2.9 2.7-.8 0-2.9-.2-2.9-2.8h1.6c0 .4.1 1.5 1.2 1.5.7 0 1.2-.4 1.2-1.4 0-1.1-1.1-1.2-1.9-1.2v-1.1z"/></g><path fill="none" stroke="#f79332" stroke-miterlimit="10" d="m326.7 82.8c0 2.3-1.9 4.2-4.2 4.2h-86.2c-2.3 0-4.2-1.9-4.2-4.2v-19.5c0-2.3 1.9-4.2 4.2-4.2h86.2c2.3 0 4.2 1.9 4.2 4.2v19.5z"/><g fill="#f79332"><path d="m257.7 77.8h-1.7v-7h-2.6v-1.5h6.9v1.5h-2.6v7"/><path d="m267.9 70.8h-4.5v1.8h4.1v1.5h-4.1v2.2h4.7v1.5h-6.4v-8.5h6.2v1.5"/><path d="m271.2 75.2c0 .5.2 1.4 1.8 1.4.8 0 1.8-.2 1.8-1.1 0-.7-.6-.8-1.5-1.1l-.9-.2c-1.4-.3-2.7-.6-2.7-2.5 0-.9.5-2.6 3.3-2.6 2.6 0 3.3 1.7 3.3 2.7h-1.7c0-.4-.2-1.3-1.7-1.3-.7 0-1.5.2-1.5 1 0 .7.5.8.9.9l2.1.5c1.2.3 2.2.8 2.2 2.3 0 2.6-2.6 2.8-3.3 2.8-3.1 0-3.6-1.8-3.6-2.8h1.5"/><path d="m281.5 77.8h-1.8v-7h-2.6v-1.5h6.9v1.5h-2.6v7z"/><path d="m287.1 77.8h-1.8v-8.5h1.8v8.5"/><path d="m294.3 69.3h1.7v8.5h-1.8l-3.5-6v6h-1.7v-8.5h1.9l3.4 5.9v-5.9"/><path d="m302 73.2h3.5v4.6h-1.2l-.2-1.1c-.4.5-1.1 1.3-2.6 1.3-2 0-3.9-1.5-3.9-4.4 0-2.3 1.3-4.5 4.1-4.5 2.6 0 3.6 1.7 3.7 2.9h-1.8c0-.3-.6-1.4-1.9-1.4-1.3 0-2.4.9-2.4 3 0 2.3 1.3 2.9 2.5 2.9.4 0 1.7-.2 2.1-1.9h-2v-1.4z"/></g><path fill="none" stroke="#59aee0" stroke-miterlimit="10" d="m326.7 116.5c0 2.3-1.9 4.2-4.2 4.2h-86.2c-2.3 0-4.2-1.9-4.2-4.2v-19.5c0-2.3 1.9-4.2 4.2-4.2h86.2c2.3 0 4.2 1.9 4.2 4.2v19.5z"/><g fill="#59aee0"><path d="m246.7 111.5h-1.8v-8.5h6v1.5h-4.3v1.9h3.7v1.5h-3.7v3.6z"/><path d="m252.5 103h4.3c2.3 0 2.7 1.7 2.7 2.4 0 .9-.5 1.7-1.3 2 .7.3 1.1.6 1.1 2.1 0 1.2 0 1.5.4 1.7v.2h-2c-.1-.4-.2-.8-.2-1.7 0-1.2-.1-1.6-1.4-1.6h-1.8v3.3h-1.7v-8.4zm3.8 3.8c.9 0 1.4-.3 1.4-1.2 0-.4-.2-1.1-1.2-1.1h-2.2v2.3h2"/><path d="m264.8 102.8c1.1 0 4.1.5 4.1 4.5 0 4-3 4.5-4.1 4.5-1.1 0-4.1-.5-4.1-4.5.1-4 3-4.5 4.1-4.5m0 7.4c1 0 2.3-.6 2.3-3s-1.3-3-2.3-3c-1 0-2.3.6-2.3 3s1.4 3 2.3 3"/><path d="m275.9 103h1.7v8.5h-1.8l-3.5-6v6h-1.7v-8.5h1.9l3.4 5.9v-5.9"/><path d="m283.2 111.5h-1.8v-7h-2.6v-1.5h6.9v1.5h-2.6v7z"/><path d="m297 104.5h-4.5v1.8h4.1v1.5h-4.1v2.2h4.7v1.5h-6.4v-8.5h6.2v1.5"/><path d="m304.2 103h1.7v8.5h-1.9l-3.5-6v6h-1.7v-8.5h1.9l3.4 5.9v-5.9z"/><path d="m307.9 103h3.7c2.9 0 3.4 2.4 3.4 4 0 1.8-.7 4.4-3.5 4.4h-3.7v-8.4zm1.7 7.1h1.7c1.4 0 1.9-1.5 1.9-2.8 0-2.5-1.2-2.7-1.9-2.7h-1.7v5.5"/></g><path fill="none" stroke="#3773b1" stroke-miterlimit="10" d="m326.7 150.3c0 2.3-1.9 4.2-4.2 4.2h-86.2c-2.3 0-4.2-1.9-4.2-4.2v-19.5c0-2.3 1.9-4.2 4.2-4.2h86.2c2.3 0 4.2 1.9 4.2 4.2v19.5z"/><g fill="#3773b1"><path d="m248.7 136.8h4.1c2.1 0 2.6 1.3 2.6 2.2 0 1.2-.7 1.6-1 1.7 1 .4 1.3 1.2 1.3 2.1 0 .7-.3 1.3-.7 1.7-.5.5-.9.8-2.7.8h-3.6v-8.5m1.7 3.3h2.1c.7 0 1.3-.3 1.3-.9 0-.7-.5-.9-1.3-.9h-2v1.8zm0 3.7h2.2c.9 0 1.4-.4 1.4-1.2 0-.7-.6-1-1.3-1h-2.3v2.2"/><path d="m258.4 145.2h-1.9l3-8.5h2l3 8.5h-1.9l-.5-1.7h-3.1l-.6 1.7m1.1-3.2h2.2l-1.1-3.4-1.1 3.4"/><path d="m271 139.5c-.1-.5-.4-1.5-1.9-1.5-.9 0-2.1.6-2.1 3 0 1.5.6 2.9 2.1 2.9 1 0 1.7-.6 1.9-1.6h1.8c-.4 1.8-1.6 3.1-3.7 3.1-2.3 0-3.9-1.5-3.9-4.5 0-3 1.7-4.5 3.9-4.5 2.5 0 3.6 1.7 3.7 3h-1.8z"/><path d="m276.4 145.2h-1.8v-8.5h1.8v3.4l3.2-3.4h2.3l-3.5 3.5 3.7 5h-2.3l-2.6-3.7-.8.9v2.8"/><path d="m293.2 138.3h-4.5v1.8h4.1v1.5h-4.1v2.2h4.7v1.5h-6.4v-8.5h6.2v1.5"/><path d="m300.4 136.8h1.7v8.5h-1.8l-3.5-6v6h-1.7v-8.5h1.9l3.4 5.9v-5.9"/><path d="m304.1 136.8h3.7c2.9 0 3.4 2.4 3.4 4 0 1.8-.7 4.4-3.5 4.4h-3.7v-8.4zm1.8 7h1.7c1.4 0 1.9-1.5 1.9-2.8 0-2.5-1.2-2.7-1.9-2.7h-1.7v5.5"/></g><path fill="none" stroke="#654a83" stroke-miterlimit="10" d="m326.7 184c0 2.3-1.9 4.2-4.2 4.2h-86.2c-2.3 0-4.2-1.9-4.2-4.2v-19.5c0-2.3 1.9-4.2 4.2-4.2h86.2c2.3 0 4.2 1.9 4.2 4.2v19.5z"/><g fill="#654a83"><path d="m248.3 170.5h3.7c2.9 0 3.4 2.4 3.4 4 0 1.8-.7 4.4-3.5 4.4h-3.7v-8.4zm1.7 7h1.7c1.4 0 1.9-1.5 1.9-2.8 0-2.5-1.2-2.7-1.9-2.7h-1.7v5.5"/><path d="m257.9 179h-1.9l3-8.5h2l3 8.5h-1.9l-.5-1.7h-3.1l-.6 1.7m1-3.3h2.2l-1.1-3.4-1.1 3.4"/><path d="m268.1 179h-1.8v-7h-2.6v-1.5h6.9v1.5h-2.6v7z"/><path d="m272.2 179h-1.9l3-8.5h2l3 8.5h-1.9l-.5-1.7h-3.1l-.6 1.7m1.1-3.3h2.2l-1.1-3.4-1.1 3.4"/><path d="m279.9 170.5h4.1c2.1 0 2.6 1.3 2.6 2.2 0 1.2-.7 1.6-1 1.7 1 .4 1.3 1.2 1.3 2.1 0 .7-.3 1.3-.7 1.7-.5.5-.9.8-2.7.8h-3.6v-8.5m1.7 3.3h2.1c.7 0 1.3-.3 1.3-.9 0-.7-.5-.9-1.3-.9h-2v1.8zm0 3.7h2.2c.9 0 1.4-.4 1.4-1.2 0-.7-.6-1-1.3-1h-2.3v2.2"/><path d="m289.6 179h-1.9l3-8.5h2l3 8.5h-1.9l-.5-1.7h-3.1l-.6 1.7m1.1-3.3h2.2l-1.1-3.4-1.1 3.4"/><path d="m298.2 176.3c0 .5.2 1.4 1.8 1.4.8 0 1.8-.2 1.8-1.1 0-.7-.6-.8-1.5-1.1l-.9-.2c-1.4-.3-2.7-.6-2.7-2.5 0-.9.5-2.6 3.3-2.6 2.6 0 3.3 1.7 3.3 2.7h-1.7c0-.4-.2-1.3-1.7-1.3-.7 0-1.5.2-1.5 1 0 .7.5.8.9.9l2.1.5c1.2.3 2.2.8 2.2 2.3 0 2.6-2.6 2.8-3.3 2.8-3.1 0-3.6-1.8-3.6-2.8h1.5"/><path d="m311.4 172h-4.5v1.8h4.1v1.5h-4.1v2.2h4.7v1.5h-6.4v-8.5h6.2v1.5"/></g><g fill="#68ab47"><path d="m374.1 41.5c0 .5.2 1.4 1.8 1.4.8 0 1.8-.2 1.8-1.1 0-.7-.6-.8-1.5-1.1l-.9-.2c-1.4-.3-2.7-.6-2.7-2.5 0-.9.5-2.6 3.3-2.6 2.6 0 3.3 1.7 3.3 2.7h-1.7c0-.4-.2-1.3-1.7-1.3-.7 0-1.5.2-1.5 1 0 .7.5.8.9.9l2.1.5c1.2.3 2.2.8 2.2 2.3 0 2.6-2.6 2.8-3.3 2.8-3.1 0-3.6-1.8-3.6-2.8h1.5"/><path d="m382.8 40.3v3.8h-1.8v-8.5h1.8v3.2h3.3v-3.2h1.8v8.5h-1.8v-3.8h-3.3"/><path d="m391.6 44.1h-1.8v-8.5h1.8v8.5"/><path d="m395.4 44.1h-1.8v-8.5h3.9c1.6 0 2.6 1.1 2.6 2.7 0 .8-.4 2.7-2.7 2.7h-2v3.1m1.6-4.5c1.3 0 1.3-.9 1.3-1.3 0-.8-.5-1.2-1.6-1.2h-1.4v2.5h1.7"/><path d="m408.7 44.1h-1.7l-2.3-6.3h1.8l1.3 4.6 1.3-4.6h1.8l-2.2 6.3"/><path d="m417.7 42.2h-.9v1.9h-1.7v-1.9h-3.3v-1.4l3.1-5.1h1.9v5.2h.9v1.3m-2.6-1.3c0-2 0-3.3 0-3.6l-2.1 3.6h2.1"/></g><path fill="none" stroke="#f79332" stroke-miterlimit="10" d="m439.6 82.8c0 2.3-1.9 4.2-4.2 4.2h-86.2c-2.3 0-4.2-1.9-4.2-4.2v-19.5c0-2.3 1.9-4.2 4.2-4.2h86.2c2.3 0 4.2 1.9 4.2 4.2v19.5z"/><g fill="#f79332"><path d="m370.6 77.8h-1.8v-7h-2.6v-1.5h6.9v1.5h-2.6v7z"/><path d="m380.8 70.8h-4.5v1.8h4.1v1.5h-4.1v2.2h4.7v1.5h-6.4v-8.5h6.2v1.5"/><path d="m384.1 75.2c0 .5.2 1.4 1.8 1.4.8 0 1.8-.2 1.8-1.1 0-.7-.6-.8-1.5-1.1l-.9-.2c-1.4-.3-2.7-.6-2.7-2.5 0-.9.5-2.6 3.3-2.6 2.6 0 3.3 1.7 3.3 2.7h-1.7c0-.4-.2-1.3-1.7-1.3-.7 0-1.5.2-1.5 1 0 .7.5.8.9.9l2.1.5c1.2.3 2.2.8 2.2 2.3 0 2.6-2.6 2.8-3.3 2.8-3.1 0-3.6-1.8-3.6-2.8h1.5"/><path d="m394.4 77.8h-1.8v-7h-2.6v-1.5h6.9v1.5h-2.6v7z"/><path d="m400 77.8h-1.8v-8.5h1.8v8.5"/><path d="m407.2 69.3h1.7v8.5h-1.8l-3.5-6v6h-1.7v-8.5h1.9l3.4 5.9v-5.9"/><path d="m414.9 73.2h3.5v4.6h-1.2l-.2-1.1c-.4.5-1.1 1.3-2.6 1.3-2 0-3.9-1.5-3.9-4.4 0-2.3 1.3-4.5 4.1-4.5 2.6 0 3.6 1.7 3.7 2.9h-1.8c0-.3-.6-1.4-1.9-1.4-1.3 0-2.4.9-2.4 3 0 2.3 1.3 2.9 2.5 2.9.4 0 1.7-.2 2.1-1.9h-2v-1.4z"/></g><path fill="none" stroke="#59aee0" stroke-miterlimit="10" d="m439.6 116.5c0 2.3-1.9 4.2-4.2 4.2h-86.2c-2.3 0-4.2-1.9-4.2-4.2v-19.5c0-2.3 1.9-4.2 4.2-4.2h86.2c2.3 0 4.2 1.9 4.2 4.2v19.5z"/><g fill="#59aee0"><path d="m359.6 111.5h-1.8v-8.5h6v1.5h-4.3v1.9h3.7v1.5h-3.7v3.6z"/><path d="m365.4 103h4.3c2.3 0 2.7 1.7 2.7 2.4 0 .9-.5 1.7-1.3 2 .7.3 1.1.6 1.1 2.1 0 1.2 0 1.5.4 1.7v.2h-2c-.1-.4-.2-.8-.2-1.7 0-1.2-.1-1.6-1.4-1.6h-1.8v3.3h-1.7v-8.4zm3.8 3.8c.9 0 1.4-.3 1.4-1.2 0-.4-.2-1.1-1.2-1.1h-2.2v2.3h2"/><path d="m377.7 102.8c1.1 0 4.1.5 4.1 4.5 0 4-3 4.5-4.1 4.5-1.1 0-4.1-.5-4.1-4.5.1-4 3-4.5 4.1-4.5m0 7.4c1 0 2.3-.6 2.3-3s-1.3-3-2.3-3c-1 0-2.3.6-2.3 3s1.4 3 2.3 3"/><path d="m388.7 103h1.7v8.5h-1.8l-3.5-6v6h-1.7v-8.5h1.9l3.4 5.9v-5.9"/><path d="m396.1 111.5h-1.8v-7h-2.6v-1.5h6.9v1.5h-2.6v7z"/><path d="m409.9 104.5h-4.5v1.8h4.1v1.5h-4.1v2.2h4.7v1.5h-6.4v-8.5h6.2v1.5"/><path d="m417.1 103h1.7v8.5h-1.8l-3.5-6v6h-1.7v-8.5h1.9l3.4 5.9v-5.9"/><path d="m420.8 103h3.7c2.9 0 3.4 2.4 3.4 4 0 1.8-.7 4.4-3.5 4.4h-3.7v-8.4zm1.7 7.1h1.7c1.4 0 1.9-1.5 1.9-2.8 0-2.5-1.2-2.7-1.9-2.7h-1.7v5.5"/></g><path fill="none" stroke="#3773b1" stroke-miterlimit="10" d="m439.6 150.3c0 2.3-1.9 4.2-4.2 4.2h-86.2c-2.3 0-4.2-1.9-4.2-4.2v-19.5c0-2.3 1.9-4.2 4.2-4.2h86.2c2.3 0 4.2 1.9 4.2 4.2v19.5z"/><g fill="#3773b1"><path d="m361.6 136.8h4.1c2.1 0 2.6 1.3 2.6 2.2 0 1.2-.7 1.6-1 1.7 1 .4 1.3 1.2 1.3 2.1 0 .7-.3 1.3-.7 1.7-.5.5-.9.8-2.7.8h-3.6v-8.5m1.7 3.3h2.1c.7 0 1.3-.3 1.3-.9 0-.7-.5-.9-1.3-.9h-2v1.8zm0 3.7h2.2c.9 0 1.4-.4 1.4-1.2 0-.7-.6-1-1.3-1h-2.3v2.2"/><path d="m371.3 145.2h-1.9l3-8.5h2l3 8.5h-1.9l-.5-1.7h-3.1l-.6 1.7m1.1-3.2h2.2l-1.1-3.4-1.1 3.4"/><path d="m383.9 139.5c-.1-.5-.4-1.5-1.9-1.5-.9 0-2.1.6-2.1 3 0 1.5.6 2.9 2.1 2.9 1 0 1.7-.6 1.9-1.6h1.8c-.4 1.8-1.6 3.1-3.7 3.1-2.3 0-3.9-1.5-3.9-4.5 0-3 1.7-4.5 3.9-4.5 2.5 0 3.6 1.7 3.7 3h-1.8z"/><path d="m389.3 145.2h-1.8v-8.5h1.8v3.4l3.2-3.4h2.3l-3.5 3.5 3.7 5h-2.3l-2.6-3.7-.8.9v2.8"/><path d="m406.1 138.3h-4.5v1.8h4.1v1.5h-4.1v2.2h4.7v1.5h-6.4v-8.5h6.2v1.5"/><path d="m413.3 136.8h1.7v8.5h-1.8l-3.5-6v6h-1.7v-8.5h1.9l3.4 5.9v-5.9"/><path d="m417 136.8h3.7c2.9 0 3.4 2.4 3.4 4 0 1.8-.7 4.4-3.5 4.4h-3.6v-8.4m1.7 7h1.7c1.4 0 1.9-1.5 1.9-2.8 0-2.5-1.2-2.7-1.9-2.7h-1.7v5.5"/></g><path fill="none" stroke="#654a83" stroke-miterlimit="10" d="m439.6 184c0 2.3-1.9 4.2-4.2 4.2h-86.2c-2.3 0-4.2-1.9-4.2-4.2v-19.5c0-2.3 1.9-4.2 4.2-4.2h86.2c2.3 0 4.2 1.9 4.2 4.2v19.5z"/><g fill="#654a83"><path d="m361.3 170.5h3.7c2.9 0 3.4 2.4 3.4 4 0 1.8-.7 4.4-3.5 4.4h-3.7v-8.4zm1.7 7h1.7c1.4 0 1.9-1.5 1.9-2.8 0-2.5-1.2-2.7-1.9-2.7h-1.7v5.5"/><path d="m370.9 179h-1.9l3-8.5h2l3 8.5h-1.9l-.5-1.7h-3.1l-.6 1.7m1.1-3.3h2.2l-1.1-3.4-1.1 3.4"/><path d="m381.1 179h-1.8v-7h-2.6v-1.5h6.9v1.5h-2.6v7z"/><path d="m385.2 179h-1.9l3-8.5h2l3 8.5h-1.9l-.5-1.7h-3.1l-.6 1.7m1.1-3.3h2.2l-1.1-3.4-1.1 3.4"/><path d="m392.9 170.5h4.1c2.1 0 2.6 1.3 2.6 2.2 0 1.2-.7 1.6-1 1.7 1 .4 1.3 1.2 1.3 2.1 0 .7-.3 1.3-.7 1.7-.5.5-.9.8-2.7.8h-3.6v-8.5m1.7 3.3h2.1c.7 0 1.3-.3 1.3-.9 0-.7-.5-.9-1.3-.9h-2v1.8zm0 3.7h2.2c.9 0 1.4-.4 1.4-1.2 0-.7-.6-1-1.3-1h-2.3v2.2"/><path d="m402.6 179h-1.9l3-8.5h2l3 8.5h-1.9l-.5-1.7h-3.1l-.6 1.7m1.1-3.3h2.2l-1.1-3.4-1.1 3.4"/><path d="m411.2 176.3c0 .5.2 1.4 1.8 1.4.8 0 1.8-.2 1.8-1.1 0-.7-.6-.8-1.5-1.1l-.9-.2c-1.4-.3-2.7-.6-2.7-2.5 0-.9.5-2.6 3.3-2.6 2.6 0 3.3 1.7 3.3 2.7h-1.7c0-.4-.2-1.3-1.7-1.3-.7 0-1.5.2-1.5 1 0 .7.5.8.9.9l2.1.5c1.2.3 2.2.8 2.2 2.3 0 2.6-2.6 2.8-3.3 2.8-3.1 0-3.6-1.8-3.6-2.8h1.5"/><path d="M424.5,172H420v1.8h4.1v1.5H420v2.2h4.7v1.5h-6.4v-8.5h6.2V172z"/></g><g fill="#68ab47"><path d="m494 41.5c0 .5.2 1.4 1.8 1.4.8 0 1.8-.2 1.8-1.1 0-.7-.6-.8-1.5-1.1l-.9-.2c-1.4-.3-2.7-.6-2.7-2.5 0-.9.5-2.6 3.3-2.6 2.6 0 3.3 1.7 3.3 2.7h-1.7c0-.4-.2-1.3-1.7-1.3-.7 0-1.5.2-1.5 1 0 .7.5.8.9.9l2.1.5c1.2.3 2.2.8 2.2 2.3 0 2.6-2.6 2.8-3.3 2.8-3.1 0-3.6-1.8-3.6-2.8h1.5"/><path d="m502.7 40.3v3.8h-1.8v-8.5h1.8v3.2h3.3v-3.2h1.8v8.5h-1.8v-3.8h-3.3"/><path d="m511.5 44.1h-1.8v-8.5h1.8v8.5"/><path d="m515.2 44.1h-1.8v-8.5h3.9c1.6 0 2.6 1.1 2.6 2.7 0 .8-.4 2.7-2.7 2.7h-2v3.1m1.7-4.5c1.3 0 1.3-.9 1.3-1.3 0-.8-.5-1.2-1.6-1.2h-1.4v2.5h1.7"/><path d="m528.6 44.1h-1.7l-2.3-6.3h1.8l1.3 4.6 1.3-4.6h1.8l-2.2 6.3"/><path d="m533.4 39c.3-.2.7-.5 1.5-.5 1.1 0 2.5.8 2.5 2.7 0 1.1-.6 3-3 3-1.3 0-2.6-.8-2.7-2.5h1.7c.1.7.4 1.1 1.2 1.1.8 0 1.3-.7 1.3-1.6 0-.7-.4-1.5-1.2-1.5-.2 0-.8 0-1.1.6l-1.5-.1.6-4.6h4.6v1.4h-3.4l-.5 2"/></g><path fill="none" stroke="#f79332" stroke-miterlimit="10" d="m552.5 82.8c0 2.3-1.9 4.2-4.2 4.2h-86.2c-2.3 0-4.2-1.9-4.2-4.2v-19.5c0-2.3 1.9-4.2 4.2-4.2h86.2c2.3 0 4.2 1.9 4.2 4.2v19.5z"/><g fill="#f79332"><path d="m483.5 77.8h-1.8v-7h-2.6v-1.5h6.9v1.5h-2.6v7z"/><path d="m493.7 70.8h-4.5v1.8h4.1v1.5h-4.1v2.2h4.7v1.5h-6.4v-8.5h6.2v1.5"/><path d="m497 75.2c0 .5.2 1.4 1.8 1.4.8 0 1.8-.2 1.8-1.1 0-.7-.6-.8-1.5-1.1l-.9-.2c-1.4-.3-2.7-.6-2.7-2.5 0-.9.5-2.6 3.3-2.6 2.6 0 3.3 1.7 3.3 2.7h-1.7c0-.4-.2-1.3-1.7-1.3-.7 0-1.5.2-1.5 1 0 .7.5.8.9.9l1.9.6c1.2.3 2.2.8 2.2 2.3 0 2.6-2.6 2.8-3.3 2.8-3.1 0-3.6-1.8-3.6-2.8h1.7z"/><path d="m507.3 77.8h-1.8v-7h-2.5v-1.5h6.9v1.5h-2.6v7"/><path d="m512.9 77.8h-1.8v-8.5h1.8v8.5"/><path d="m520.1 69.3h1.7v8.5h-1.8l-3.5-6v6h-1.7v-8.5h1.9l3.4 5.9v-5.9"/><path d="m527.8 73.2h3.5v4.6h-1.2l-.2-1.1c-.4.5-1.1 1.3-2.6 1.3-2 0-3.9-1.5-3.9-4.4 0-2.3 1.3-4.5 4.1-4.5 2.6 0 3.6 1.7 3.7 2.9h-1.8c0-.3-.6-1.4-1.9-1.4-1.3 0-2.4.9-2.4 3 0 2.3 1.3 2.9 2.5 2.9.4 0 1.7-.2 2.1-1.9h-2v-1.4z"/></g><path fill="none" stroke="#59aee0" stroke-miterlimit="10" d="m552.5 116.5c0 2.3-1.9 4.2-4.2 4.2h-86.2c-2.3 0-4.2-1.9-4.2-4.2v-19.5c0-2.3 1.9-4.2 4.2-4.2h86.2c2.3 0 4.2 1.9 4.2 4.2v19.5z"/><g fill="#59aee0"><path d="m473 111.5h-1.8v-8.5h6v1.5h-4.2v1.9h3.7v1.5h-3.7v3.6"/><path d="m478.8 103h4.3c2.3 0 2.7 1.7 2.7 2.4 0 .9-.5 1.7-1.3 2 .7.3 1.1.6 1.1 2.1 0 1.2 0 1.5.4 1.7v.2h-2c-.1-.4-.2-.8-.2-1.7 0-1.2-.1-1.6-1.4-1.6h-1.8v3.3h-1.7v-8.4zm3.9 3.8c.9 0 1.4-.3 1.4-1.2 0-.4-.2-1.1-1.2-1.1h-2.2v2.3h2"/><path d="m491.2 102.8c1.1 0 4.1.5 4.1 4.5 0 4-3 4.5-4.1 4.5-1.1 0-4.1-.5-4.1-4.5 0-4 3-4.5 4.1-4.5m0 7.4c1 0 2.3-.6 2.3-3s-1.3-3-2.3-3c-1 0-2.3.6-2.3 3s1.3 3 2.3 3"/><path d="m502.2 103h1.7v8.5h-1.8l-3.5-6v6h-1.7v-8.5h1.9l3.4 5.9v-5.9"/><path d="m509.5 111.5h-1.8v-7h-2.6v-1.5h6.9v1.5h-2.6v7z"/><path d="m523.3 104.5h-4.5v1.8h4.1v1.5h-4.1v2.2h4.7v1.5h-6.4v-8.5h6.2v1.5"/><path d="m530.5 103h1.7v8.5h-1.8l-3.5-6v6h-1.7v-8.5h1.9l3.4 5.9v-5.9"/><path d="m534.2 103h3.7c2.9 0 3.4 2.4 3.4 4 0 1.8-.7 4.4-3.5 4.4h-3.7v-8.4zm1.7 7.1h1.7c1.4 0 1.9-1.5 1.9-2.8 0-2.5-1.2-2.7-1.9-2.7h-1.7v5.5"/></g><path fill="none" stroke="#3773b1" stroke-miterlimit="10" d="m552.5 150.3c0 2.3-1.9 4.2-4.2 4.2h-86.2c-2.3 0-4.2-1.9-4.2-4.2v-19.5c0-2.3 1.9-4.2 4.2-4.2h86.2c2.3 0 4.2 1.9 4.2 4.2v19.5z"/><g fill="#3773b1"><path d="m474.5 136.8h4.1c2.1 0 2.6 1.3 2.6 2.2 0 1.2-.7 1.6-1 1.7 1 .4 1.3 1.2 1.3 2.1 0 .7-.3 1.3-.7 1.7-.5.5-.9.8-2.7.8h-3.6v-8.5m1.7 3.3h2.1c.7 0 1.3-.3 1.3-.9 0-.7-.5-.9-1.3-.9h-2v1.8zm0 3.7h2.2c.9 0 1.4-.4 1.4-1.2 0-.7-.6-1-1.3-1h-2.3v2.2"/><path d="m484.2 145.2h-1.9l3-8.5h2l3 8.5h-1.9l-.5-1.7h-3.1l-.6 1.7m1.1-3.2h2.2l-1.1-3.4-1.1 3.4"/><path d="m496.8 139.5c-.1-.5-.4-1.5-1.9-1.5-.9 0-2.1.6-2.1 3 0 1.5.6 2.9 2.1 2.9 1 0 1.7-.6 1.9-1.6h1.8c-.4 1.8-1.6 3.1-3.7 3.1-2.3 0-3.9-1.5-3.9-4.5 0-3 1.7-4.5 3.9-4.5 2.5 0 3.6 1.7 3.7 3h-1.8z"/><path d="m502.2 145.2h-1.8v-8.5h1.8v3.4l3.2-3.4h2.3l-3.5 3.5 3.7 5h-2.3l-2.6-3.7-.8.9v2.8"/><path d="m519 138.3h-4.5v1.8h4.1v1.5h-4.1v2.2h4.7v1.5h-6.4v-8.5h6.2v1.5"/><path d="m526.2 136.8h1.7v8.5h-1.8l-3.5-6v6h-1.7v-8.5h1.9l3.4 5.9v-5.9"/><path d="m529.9 136.8h3.7c2.9 0 3.4 2.4 3.4 4 0 1.8-.7 4.4-3.5 4.4h-3.7v-8.4zm1.7 7h1.7c1.4 0 1.9-1.5 1.9-2.8 0-2.5-1.2-2.7-1.9-2.7h-1.7v5.5"/></g><path fill="none" stroke="#654a83" stroke-miterlimit="10" d="m552.5 184c0 2.3-1.9 4.2-4.2 4.2h-86.2c-2.3 0-4.2-1.9-4.2-4.2v-19.5c0-2.3 1.9-4.2 4.2-4.2h86.2c2.3 0 4.2 1.9 4.2 4.2v19.5z"/><g fill="#654a83"><path d="m474.2 170.5h3.7c2.9 0 3.4 2.4 3.4 4 0 1.8-.7 4.4-3.5 4.4h-3.7v-8.4zm1.7 7h1.7c1.4 0 1.9-1.5 1.9-2.8 0-2.5-1.2-2.7-1.9-2.7h-1.7v5.5"/><path d="m483.8 179h-1.9l3-8.5h2l3 8.5h-1.9l-.5-1.7h-3.1l-.6 1.7m1.1-3.3h2.2l-1.1-3.4-1.1 3.4"/><path d="m494 179h-1.8v-7h-2.6v-1.5h6.9v1.5h-2.5v7"/><path d="m498.1 179h-1.9l3-8.5h2l3 8.5h-1.9l-.5-1.7h-3.1l-.6 1.7m1.1-3.3h2.2l-1.1-3.4-1.1 3.4"/><path d="m505.8 170.5h4.1c2.1 0 2.6 1.3 2.6 2.2 0 1.2-.7 1.6-1 1.7 1 .4 1.3 1.2 1.3 2.1 0 .7-.3 1.3-.7 1.7-.5.5-.9.8-2.7.8h-3.6v-8.5m1.7 3.3h2.1c.7 0 1.3-.3 1.3-.9 0-.7-.5-.9-1.3-.9h-2v1.8zm0 3.7h2.2c.9 0 1.4-.4 1.4-1.2 0-.7-.6-1-1.3-1h-2.3v2.2"/><path d="m515.5 179h-1.9l3-8.5h2l3 8.5h-1.9l-.5-1.7h-3.1l-.6 1.7m1.1-3.3h2.2l-1.1-3.4-1.1 3.4"/><path d="m524.2 176.3c0 .5.2 1.4 1.8 1.4.8 0 1.8-.2 1.8-1.1 0-.7-.6-.8-1.5-1.1l-.9-.2c-1.4-.3-2.7-.6-2.7-2.5 0-.9.5-2.6 3.3-2.6 2.6 0 3.3 1.7 3.3 2.7h-1.7c0-.4-.2-1.3-1.7-1.3-.7 0-1.5.2-1.5 1 0 .7.5.8.9.9l2.1.5c1.2.3 2.2.8 2.2 2.3 0 2.6-2.6 2.8-3.3 2.8-3.1 0-3.6-1.8-3.6-2.8h1.5"/><path d="m537.4 172h-4.5v1.8h4.1v1.5h-4.1v2.2h4.7v1.5h-6.4v-8.5h6.2v1.5"/></g><g fill="none" stroke="#68ab47" stroke-miterlimit="10"><g stroke-width=".464"><g stroke-linecap="round"><path d="m14.1 42.9v-6.5"/><path d="m9.2 37.5l4.9-1.1 4.8 1.1"/></g><path d="m9.6 37.4l1.4 5.5"/><path d="m18.4 37.4l-1.4 5.5"/><g stroke-linejoin="round"><g stroke-linecap="round"><path d="m10.8 37.1v-2.4c0-.5.4-.9.9-.9h4.6c.5 0 .9.4.9.9v2.4"/><path d="m12.4 35.2h3.3"/><path d="m13.1 33.8v-2.8h1.9v2.8"/></g><path d="m13.1 32h1.9"/><path stroke-linecap="round" d="m10.1 39.2l4-1.2 3.9 1.2"/></g><path stroke-linecap="round" d="m19.6 43.8c0 .4-.3.7-.7.7s-.7-.3-.7-.7c0-.5-.4-.9-.9-.9s-.9.4-.9.9c0 .4-.3.7-.7.7-.4 0-.7-.3-.7-.7 0-.5-.4-.9-.9-.9s-.9.4-.9.9c0 .4-.3.7-.7.7s-.7-.3-.7-.7c0-.5-.4-.9-.9-.9s-.9.4-.9.9c0 .4-.3.7-.7.7s-.7-.3-.7-.7"/></g><g stroke-width=".616"><g stroke-linecap="round"><path d="m126.6 42.3v-8.6"/><path d="m120.1 35.2l6.5-1.5 6.4 1.5"/></g><path d="m120.7 35.1l1.7 7.2"/><path d="m132.4 35.1l-2 7.3"/><g stroke-linejoin="round"><g stroke-linecap="round"><path d="m122.2 34.7v-3.2c0-.7.6-1.2 1.2-1.2h6.2c.7 0 1.2.6 1.2 1.2v3.2"/><path d="m124.4 32.2h4.3"/><path d="m125.3 30.3v-3.7h2.5v3.7"/></g><path d="m125.3 27.9h2.5"/><path stroke-linecap="round" d="m121.2 37.5l5.4-1.6 5.1 1.6"/></g><path stroke-linecap="round" d="m133.9 43.6c0 .5-.4.9-.9.9s-.9-.4-.9-.9c0-.7-.6-1.2-1.2-1.2-.7 0-1.2.6-1.2 1.2 0 .5-.4.9-.9.9s-.9-.4-.9-.9c0-.7-.6-1.2-1.2-1.2s-1.2.6-1.2 1.2c0 .5-.4.9-.9.9-.5 0-.9-.4-.9-.9 0-.7-.6-1.2-1.2-1.2s-1.2.6-1.2 1.2c0 .5-.4.9-.9.9-.5 0-.9-.4-.9-.9"/></g><g stroke-width=".778"><g stroke-linecap="round"><path d="m241.4 41.8v-10.9"/><path d="m233.2 32.8l8.2-1.9 8.2 1.9"/></g><path d="m233.9 32.6l2.3 9.2"/><path d="m248.8 32.6l-2.5 9.3"/><g stroke-linejoin="round"><g stroke-linecap="round"><path d="m235.9 32.2v-4c0-.9.7-1.6 1.6-1.6h7.8c.9 0 1.6.7 1.6 1.6v4"/><path d="m238.7 28.9h5.4"/><path d="m239.8 26.6v-4.7h3.2v4.7"/></g><path d="m239.8 23.5h3.2"/><path stroke-linecap="round" d="m234.7 35.7l6.7-2.1 6.5 2.1"/></g><path stroke-linecap="round" d="m250.7 43.3c0 .6-.5 1.2-1.2 1.2-.6 0-1.2-.5-1.2-1.2 0-.9-.7-1.6-1.6-1.6-.9 0-1.6.7-1.6 1.6 0 .6-.5 1.2-1.2 1.2-.6 0-1.2-.5-1.2-1.2 0-.9-.7-1.6-1.6-1.6-.9 0-1.6.7-1.6 1.6 0 .6-.5 1.2-1.2 1.2-.6 0-1.2-.5-1.2-1.2 0-.9-.7-1.6-1.6-1.6-.9 0-1.6.7-1.6 1.6 0 .6-.5 1.2-1.2 1.2-.6 0-1.2-.5-1.2-1.2"/></g><g stroke-width=".959"><g stroke-linecap="round"><path d="m356.5 41.1v-13.4"/><path d="m346.4 30.1l10.1-2.4 10 2.4"/></g><path d="m347.3 29.9l2.7 11.3"/><path d="m365.5 29.9l-3.1 11.4"/><g stroke-linejoin="round"><g stroke-linecap="round"><path d="m349.7 29.3v-5c0-1.1.9-1.9 1.9-1.9h9.6c1.1 0 1.9.9 1.9 1.9v5"/><path d="m353.1 25.3h6.7"/><path d="m354.5 22.4v-5.7h3.9v5.7"/></g><path d="m354.5 18.6h3.9"/><path stroke-linecap="round" d="m348.2 33.6l8.3-2.5 8 2.5"/></g><path stroke-linecap="round" d="m368 43c0 .8-.6 1.4-1.4 1.4s-1.4-.6-1.4-1.4c0-1.1-.9-1.9-1.9-1.9s-1.9.9-1.9 1.9c0 .8-.6 1.4-1.4 1.4-.8 0-1.4-.6-1.4-1.4 0-1.1-.9-1.9-1.9-1.9s-1.9.9-1.9 1.9c0 .8-.6 1.4-1.4 1.4s-1.4-.6-1.4-1.4c0-1.1-.9-1.9-1.9-1.9s-1.9.9-1.9 1.9c0 .8-.6 1.4-1.4 1.4s-1.4-.6-1.4-1.4"/></g><g stroke-width="1.163"><g stroke-linecap="round"><path d="m472.2 40.4v-16.3"/><path d="m460 27l12.2-2.9 12.2 2.9"/></g><path d="m461 26.8l3.4 13.6"/><path d="m483.2 26.7l-3.8 13.9"/><g stroke-linejoin="round"><g stroke-linecap="round"><path d="m464 26.1v-6c0-1.3 1-2.3 2.3-2.3h11.7c1.3 0 2.3 1 2.3 2.3v6"/><path d="m468.1 21.2h8.2"/><path d="m469.9 17.7v-7h4.6v7"/></g><path d="m469.9 13.1h4.6"/><path stroke-linecap="round" d="m462.2 31.3l10-3.1 9.8 3.1"/></g><path stroke-linecap="round" d="m486.1 42.7c0 1-.8 1.7-1.7 1.7-1 0-1.7-.8-1.7-1.7 0-1.3-1-2.3-2.3-2.3s-2.3 1-2.3 2.3c0 1-.8 1.7-1.7 1.7-1 0-1.7-.8-1.7-1.7 0-1.3-1-2.3-2.3-2.3s-2.3 1-2.3 2.3c0 1-.8 1.7-1.7 1.7s-1.7-.8-1.7-1.7c0-1.3-1-2.3-2.3-2.3s-2.3 1-2.3 2.3c0 1-.8 1.7-1.7 1.7-1 0-1.7-.8-1.7-1.7"/></g></g></svg>