<svg xmlns="http://www.w3.org/2000/svg" viewBox="0 0 564 245" enable-background="new 0 0 564 245"><g fill="#989898"><path d="m273.4 234.9h-1.8v-7h-2.6v-1.5h6.9v1.5h-2.6v7z"/><path d="m278.5 227.9h-1.7v-1.5h1.7v1.5m0 .8v6.3h-1.7v-6.3h1.7"/><path d="m289.1 234.9h-1.7v-3.8c0-.9-.4-1.2-.9-1.2-.8 0-1.1.5-1.1 1.3v3.8h-1.7v-3.8c0-.5 0-1.3-1-1.3-.8 0-1 .5-1 1.2v3.8h-1.7v-6.3h1.6v.9c.2-.4.7-1.1 1.8-1.1.9 0 1.3.3 1.7 1 .2-.3.7-1 1.7-1 1.2 0 2.2.7 2.2 2.1v4.4z"/><path d="m296 233.1c-.4 1.5-1.7 2-2.8 2-1.8 0-3.1-.9-3.1-3.4 0-.8.3-3.2 3-3.2 1.2 0 3 .6 3 3.5v.3h-4.3c0 .5.1 1.5 1.5 1.5.5 0 .9-.2 1.1-.7h1.6m-1.6-1.9c-.1-1-.7-1.3-1.3-1.3-.8 0-1.2.5-1.3 1.3h2.6"/></g><path fill="#cdcccc" d="m558.2 212.2l-3.3-3.3c-.3-.3-.7-.3-1 0-.3.3-.3.7 0 1l2.1 2.1h-549.5v1.4h549.6l-2.1 2.1c-.3.3-.3.7 0 1 .1.1.3.2.5.2.2 0 .4-.1.5-.2l3.3-3.3c.2-.3.2-.7-.1-1"/><path fill="none" stroke="#654a83" stroke-miterlimit="10" d="M191,190c0,2.3-1.9,4.2-4.2,4.2H9.5c-2.3,0-4.2-1.9-4.2-4.2v-19.5
		c0-2.3,1.9-4.2,4.2-4.2h177.2c2.3,0,4.2,1.9,4.2,4.2V190z"/><g fill="#654a83"><path d="m67 176.5h3.7c2.9 0 3.4 2.4 3.4 4 0 1.8-.7 4.4-3.5 4.4h-3.6v-8.4m1.7 7h1.7c1.4 0 1.9-1.5 1.9-2.8 0-2.5-1.2-2.7-1.9-2.7h-1.7v5.5"/><path d="m76.6 185h-1.9l3-8.5h2l3 8.5h-1.9l-.5-1.7h-3.1l-.6 1.7m1.1-3.2h2.2l-1.1-3.4-1.1 3.4"/><path d="m86.8 185h-1.8v-7h-2.6v-1.5h6.9v1.5h-2.6v7z"/><path d="m90.9 185h-1.9l3-8.5h2l3 8.5h-1.9l-.5-1.7h-3.1l-.6 1.7m1.1-3.2h2.2l-1.1-3.4-1.1 3.4"/><path d="m98.6 176.5h4.1c2.1 0 2.6 1.3 2.6 2.2 0 1.2-.7 1.6-1 1.7 1 .4 1.3 1.2 1.3 2.1 0 .7-.3 1.3-.7 1.7-.5.5-.9.8-2.7.8h-3.6v-8.5m1.7 3.3h2.1c.7 0 1.3-.3 1.3-.9 0-.7-.5-.9-1.3-.9h-2v1.8zm0 3.7h2.2c.9 0 1.4-.4 1.4-1.2 0-.7-.6-1-1.3-1h-2.3v2.2"/><path d="m108.3 185h-1.9l3-8.5h2l3 8.5h-1.9l-.5-1.7h-3.1l-.6 1.7m1.1-3.2h2.2l-1.1-3.4-1.1 3.4"/><path d="m117 182.4c0 .5.2 1.4 1.8 1.4.8 0 1.8-.2 1.8-1.1 0-.7-.6-.8-1.5-1.1l-.9-.2c-1.4-.3-2.7-.6-2.7-2.5 0-.9.5-2.6 3.3-2.6 2.6 0 3.3 1.7 3.3 2.7h-1.7c0-.4-.2-1.3-1.7-1.3-.7 0-1.5.2-1.5 1 0 .7.5.8.9.9l2.1.5c1.2.3 2.2.8 2.2 2.3 0 2.6-2.6 2.8-3.3 2.8-3.1 0-3.6-1.8-3.6-2.8h1.5"/><path d="m130.2 178h-4.5v1.8h4.1v1.5h-4.1v2.2h4.7v1.5h-6.4v-8.5h6.2v1.5"/></g><path fill="none" stroke="#3773b1" stroke-miterlimit="10" d="m311.5 150.9c0 2.3-1.9 4.2-4.2 4.2h-187.3c-2.3 0-4.2-1.9-4.2-4.2v-19.5c0-2.3 1.9-4.2 4.2-4.2h187.2c2.3 0 4.2 1.9 4.2 4.2v19.5z"/><g fill="#3773b1"><path d="m182.9 137.4h4.1c2.1 0 2.6 1.3 2.6 2.2 0 1.2-.7 1.6-1 1.7 1 .4 1.3 1.2 1.3 2.1 0 .7-.3 1.3-.7 1.7-.5.5-.9.8-2.7.8h-3.6v-8.5m1.7 3.3h2.1c.7 0 1.3-.3 1.3-.9 0-.7-.5-.9-1.3-.9h-2v1.8zm0 3.7h2.2c.9 0 1.4-.4 1.4-1.2 0-.7-.6-1-1.3-1h-2.3v2.2"/><path d="m192.7 145.8h-1.9l3-8.5h2l3 8.5h-1.9l-.5-1.7h-3.1l-.6 1.7m1-3.2h2.2l-1.1-3.4-1.1 3.4"/><path d="m205.3 140.1c-.1-.5-.4-1.5-1.9-1.5-.9 0-2.1.6-2.1 3 0 1.5.6 2.9 2.1 2.9 1 0 1.7-.6 1.9-1.6h1.8c-.4 1.8-1.6 3.1-3.7 3.1-2.3 0-3.9-1.5-3.9-4.5 0-3 1.7-4.5 3.9-4.5 2.5 0 3.6 1.7 3.7 3h-1.8z"/><path d="m210.6 145.8h-1.8v-8.5h1.8v3.4l3.2-3.4h2.3l-3.5 3.5 3.7 5h-2.3l-2.6-3.7-.8.9v2.8"/><path d="m227.5 138.9h-4.5v1.8h4.1v1.5h-4.1v2.2h4.7v1.5h-6.4v-8.5h6.2v1.5"/><path d="m234.6 137.4h1.7v8.5h-1.8l-3.5-6v6h-1.7v-8.5h1.9l3.4 5.9v-5.9"/><path d="m238.4 137.4h3.7c2.9 0 3.4 2.4 3.4 4 0 1.8-.7 4.4-3.5 4.4h-3.7v-8.4zm1.7 7h1.7c1.4 0 1.9-1.5 1.9-2.8 0-2.5-1.2-2.7-1.9-2.7h-1.7v5.5"/></g><path fill="none" stroke="#59aee0" stroke-miterlimit="10" d="m396.1 110.4c0 2.3-1.9 4.2-4.2 4.2h-127.3c-2.3 0-4.2-1.9-4.2-4.2v-19.5c0-2.3 1.9-4.2 4.2-4.2h127.2c2.3 0 4.2 1.9 4.2 4.2v19.5z"/><g fill="#59aee0"><path d="m295.6 105.4h-1.8v-8.5h6v1.5h-4.3v1.9h3.7v1.5h-3.7v3.6z"/><path d="m301.4 96.9h4.3c2.3 0 2.7 1.7 2.7 2.4 0 .9-.5 1.7-1.3 2 .7.3 1.1.6 1.1 2.1 0 1.2 0 1.5.4 1.7v.2h-2c-.1-.4-.2-.8-.2-1.7 0-1.2-.1-1.6-1.4-1.6h-1.8v3.3h-1.7v-8.4zm3.8 3.7c.9 0 1.4-.3 1.4-1.2 0-.4-.2-1.1-1.2-1.1h-2.2v2.3h2"/><path d="m313.7 96.7c1.1 0 4.1.5 4.1 4.5 0 4-3 4.5-4.1 4.5-1.1 0-4.1-.5-4.1-4.5 0-4 3-4.5 4.1-4.5m0 7.4c1 0 2.3-.6 2.3-3s-1.3-3-2.3-3c-1 0-2.3.6-2.3 3s1.3 3 2.3 3"/><path d="m324.7 96.9h1.7v8.5h-1.8l-3.5-6v6h-1.7v-8.5h1.9l3.4 5.9v-5.9"/><path d="m332 105.4h-1.8v-7h-2.6v-1.5h6.9v1.5h-2.5v7"/><path d="m345.9 98.4h-4.5v1.8h4.1v1.5h-4.1v2.2h4.7v1.5h-6.4v-8.5h6.2v1.5"/><path d="m353 96.9h1.7v8.5h-1.8l-3.5-6v6h-1.7v-8.5h1.9l3.4 5.9v-5.9"/><path d="m356.7 96.9h3.7c2.9 0 3.4 2.4 3.4 4 0 1.8-.7 4.4-3.5 4.4h-3.7v-8.4zm1.8 7h1.7c1.4 0 1.9-1.5 1.9-2.8 0-2.5-1.2-2.7-1.9-2.7h-1.7v5.5"/></g><path fill="none" stroke="#f79332" stroke-miterlimit="10" d="m558.7 72.7c0 2.3-1.9 4.2-4.2 4.2h-174.7c-2.3 0-4.2-1.9-4.2-4.2v-19.5c0-2.3 1.9-4.2 4.2-4.2h174.6c2.3 0 4.2 1.9 4.2 4.2v19.5z"/><g fill="#f79332"><path d="m445.5 67.7h-1.8v-7h-2.6v-1.5h6.9v1.5h-2.6v7z"/><path d="m455.7 60.7h-4.5v1.8h4.1v1.5h-4.1v2.2h4.7v1.5h-6.4v-8.5h6.2v1.5"/><path d="m458.9 65.1c0 .5.2 1.4 1.8 1.4.8 0 1.8-.2 1.8-1.1 0-.7-.6-.8-1.5-1.1l-.9-.2c-1.4-.3-2.7-.6-2.7-2.5 0-.9.5-2.6 3.3-2.6 2.6 0 3.3 1.7 3.3 2.7h-1.7c0-.4-.2-1.3-1.7-1.3-.7 0-1.5.2-1.5 1 0 .7.5.8.9.9l2.1.5c1.2.3 2.2.8 2.2 2.3 0 2.6-2.6 2.8-3.3 2.8-3.1 0-3.6-1.8-3.6-2.8h1.5"/><path d="m469.3 67.7h-1.8v-7h-2.6v-1.5h6.9v1.5h-2.6v7z"/><path d="m474.9 67.7h-1.8v-8.5h1.8v8.5"/><path d="m482 59.2h1.7v8.5h-1.8l-3.5-6v6h-1.7v-8.5h1.9l3.4 5.9v-5.9"/><path d="m489.7 63.1h3.5v4.6h-1.2l-.2-1.1c-.4.5-1.1 1.3-2.6 1.3-2 0-3.9-1.5-3.9-4.4 0-2.3 1.3-4.5 4.1-4.5 2.6 0 3.6 1.7 3.7 2.9h-1.8c0-.3-.6-1.4-1.9-1.4-1.3 0-2.4.9-2.4 3 0 2.3 1.3 2.9 2.5 2.9.4 0 1.7-.2 2.1-1.9h-2v-1.4z"/></g><path fill="none" stroke="#68ab47" stroke-miterlimit="10" d="m557.5 34.1c0 2.3-1.9 4.2-4.2 4.2h-106.2c-2.3 0-4.2-1.9-4.2-4.2v-19.5c0-2.3 1.9-4.2 4.2-4.2h106.2c2.3 0 4.2 1.9 4.2 4.2v19.5z"/><g fill="#68ab47"><path d="m472.5 20.6h4.1c2.1 0 2.6 1.3 2.6 2.2 0 1.2-.7 1.6-1 1.7 1 .4 1.3 1.2 1.3 2.1 0 .7-.3 1.3-.7 1.7-.5.5-.9.8-2.7.8h-3.6v-8.5m1.7 3.4h2.1c.7 0 1.3-.3 1.3-.9 0-.7-.5-.9-1.3-.9h-2v1.8zm0 3.7h2.2c.9 0 1.4-.4 1.4-1.2 0-.7-.6-1-1.3-1h-2.3v2.2"/><path d="m483 29.1h-1.8v-8.5h1.8v8.5"/><path d="m488.9 24.6h3.5v4.6h-1.2l-.2-1.1c-.4.5-1.1 1.3-2.6 1.3-2 0-3.9-1.5-3.9-4.4 0-2.3 1.3-4.5 4.1-4.5 2.6 0 3.6 1.7 3.7 2.9h-1.8c0-.3-.6-1.4-1.9-1.4-1.3 0-2.4.9-2.4 3 0 2.3 1.3 2.9 2.5 2.9.4 0 1.7-.2 2.1-1.9h-2v-1.4z"/><path d="m499.9 27.6h4.2v1.5h-6v-8.5h1.8v7"/><path d="m506.9 29.1h-1.9l3-8.5h2l3 8.5h-1.9l-.5-1.7h-3.1l-.6 1.7m1.1-3.2h2.2l-1.1-3.4-1.1 3.4"/><path d="m520.8 26.2c0 2.2-1.3 3.2-3.5 3.2-.8 0-1.9-.2-2.7-1-.5-.5-.6-1.2-.7-2.1v-5.6h1.8v5.5c0 1.2.7 1.7 1.5 1.7 1.2 0 1.7-.6 1.7-1.6v-5.6h1.8v5.5z"/><path d="m528 20.6h1.7v8.5h-1.8l-3.5-6v6h-1.7v-8.5h1.9l3.4 5.9v-5.9"/><path d="m537.2 23.4c-.1-.5-.4-1.5-1.9-1.5-.9 0-2.1.6-2.1 3 0 1.5.6 2.9 2.1 2.9 1 0 1.7-.6 1.9-1.6h1.8c-.4 1.8-1.6 3.1-3.7 3.1-2.3 0-3.9-1.5-3.9-4.5 0-3 1.7-4.5 3.9-4.5 2.5 0 3.6 1.7 3.7 3h-1.8z"/><path d="m542.3 25.3v3.8h-1.8v-8.5h1.8v3.2h3.3v-3.2h1.8v8.5h-1.8v-3.8h-3.3"/></g><g fill="none" stroke="#68ab47" stroke-width=".525" stroke-miterlimit="10"><g stroke-linecap="round"><path d="m457.3 30.5v-7.4"/><path d="m451.8 24.4l5.5-1.3 5.5 1.3"/></g><path d="m452.3 24.3l1.5 6.2"/><path d="m462.2 24.3l-1.6 6.3"/><g stroke-linejoin="round"><g stroke-linecap="round"><path d="m453.6 24v-2.7c0-.6.5-1.1 1.1-1.1h5.3c.6 0 1.1.5 1.1 1.1v2.7"/><path d="m455.4 21.8h3.7"/><path d="m456.2 20.2v-3.1h2.1v3.1"/></g><path d="m456.2 18.1h2.1"/><path stroke-linecap="round" d="m452.8 26.4l4.5-1.4 4.4 1.4"/></g><path stroke-linecap="round" d="m463.6 31.5c0 .4-.4.8-.8.8s-.8-.3-.8-.8c0-.6-.5-1.1-1.1-1.1s-1.1.5-1.1 1.1c0 .4-.4.8-.8.8-.4 0-.8-.4-.8-.8 0-.6-.5-1.1-1.1-1.1-.6 0-1.1.5-1.1 1.1 0 .4-.4.8-.8.8-.4 0-.8-.4-.8-.8 0-.6-.5-1.1-1.1-1.1s-1.1.5-1.1 1.1c0 .4-.4.8-.8.8-.4 0-.8-.4-.8-.8"/></g></svg>